<svg xmlns="http://www.w3.org/2000/svg" xmlns:xlink="http://www.w3.org/1999/xlink" version="1.1" class="marks" width="456" height="753" viewBox="0 0 456 753"><rect width="456" height="753" fill="white"/><g fill="none" stroke-miterlimit="10" transform="translate(48,6)"><g class="mark-group role-frame root" role="graphics-object" aria-roledescription="group mark container"><g transform="translate(0,0)"><path class="background" aria-hidden="true" d="M0,0h0v0h0Z"/><g><g class="mark-group role-scope concat_0_group" role="graphics-object" aria-roledescription="group mark container"><g transform="translate(0,0)"><path class="background" aria-hidden="true" d="M0.5,0.5h400v80h-400Z" stroke="#ddd"/><g><g class="mark-group role-axis" role="graphics-symbol" aria-roledescription="axis" aria-label="X-axis for a linear scale with values from 0 to 4"><g transform="translate(0.5,80.5)"><path class="background" aria-hidden="true" d="M0,0h0v0h0Z" pointer-events="none"/><g><g class="mark-rule role-axis-grid" pointer-events="none"><line transform="translate(0,-80)" x2="0" y2="80" stroke="#ddd" stroke-width="1" opacity="1"/><line transform="translate(50,-80)" x2="0" y2="80" stroke="#ddd" stroke-width="1" opacity="1"/><line transform="translate(100,-80)" x2="0" y2="80" stroke="#ddd" stroke-width="1" opacity="1"/><line transform="translate(150,-80)" x2="0" y2="80" stroke="#ddd" stroke-width="1" opacity="1"/><line transform="translate(200,-80)" x2="0" y2="80" stroke="#ddd" stroke-width="1" opacity="1"/><line transform="translate(250,-80)" x2="0" y2="80" stroke="#ddd" stroke-width="1" opacity="1"/><line transform="translate(300,-80)" x2="0" y2="80" stroke="#ddd" stroke-width="1" opacity="1"/><line transform="translate(350,-80)" x2="0" y2="80" stroke="#ddd" stroke-width="1" opacity="1"/><line transform="translate(400,-80)" x2="0" y2="80" stroke="#ddd" stroke-width="1" opacity="1"/></g></g><path class="foreground" aria-hidden="true" d="" pointer-events="none" display="none"/></g></g><g class="mark-group role-axis" role="graphics-symbol" aria-roledescription="axis" aria-label="Y-axis for a linear scale with values from 0.0 to 1.1"><g transform="translate(0.5,0.5)"><path class="background" aria-hidden="true" d="M0,0h0v0h0Z" pointer-events="none"/><g><g class="mark-rule role-axis-grid" pointer-events="none"><line transform="translate(0,80)" x2="400" y2="0" stroke="#ddd" stroke-width="1" opacity="1"/><line transform="translate(0,44)" x2="400" y2="0" stroke="#ddd" stroke-width="1" opacity="1"/><line transform="translate(0,7)" x2="400" y2="0" stroke="#ddd" stroke-width="1" opacity="1"/></g></g><path class="foreground" aria-hidden="true" d="" pointer-events="none" display="none"/></g></g><g class="mark-group role-axis" role="graphics-symbol" aria-roledescription="axis" aria-label="X-axis titled 't' for a linear scale with values from 0 to 4"><g transform="translate(0.5,80.5)"><path class="background" aria-hidden="true" d="M0,0h0v0h0Z" pointer-events="none"/><g><g class="mark-rule role-axis-tick" pointer-events="none"><line transform="translate(0,0)" x2="0" y2="5" stroke="#888" stroke-width="1" opacity="1"/><line transform="translate(50,0)" x2="0" y2="5" stroke="#888" stroke-width="1" opacity="1"/><line transform="translate(100,0)" x2="0" y2="5" stroke="#888" stroke-width="1" opacity="1"/><line transform="translate(150,0)" x2="0" y2="5" stroke="#888" stroke-width="1" opacity="1"/><line transform="translate(200,0)" x2="0" y2="5" stroke="#888" stroke-width="1" opacity="1"/><line transform="translate(250,0)" x2="0" y2="5" stroke="#888" stroke-width="1" opacity="1"/><line transform="translate(300,0)" x2="0" y2="5" stroke="#888" stroke-width="1" opacity="1"/><line transform="translate(350,0)" x2="0" y2="5" stroke="#888" stroke-width="1" opacity="1"/><line transform="translate(400,0)" x2="0" y2="5" stroke="#888" stroke-width="1" opacity="1"/></g><g class="mark-text role-axis-label" pointer-events="none"><text text-anchor="start" transform="translate(0,15)" font-family="sans-serif" font-size="10px" fill="#000" opacity="1">0.0</text><text text-anchor="middle" transform="translate(50,15)" font-family="sans-serif" font-size="10px" fill="#000" opacity="1">0.5</text><text text-anchor="middle" transform="translate(100,15)" font-family="sans-serif" font-size="10px" fill="#000" opacity="1">1.0</text><text text-anchor="middle" transform="translate(150,15)" font-family="sans-serif" font-size="10px" fill="#000" opacity="1">1.5</text><text text-anchor="middle" transform="translate(200,15)" font-family="sans-serif" font-size="10px" fill="#000" opacity="1">2.0</text><text text-anchor="middle" transform="translate(250,15)" font-family="sans-serif" font-size="10px" fill="#000" opacity="1">2.5</text><text text-anchor="middle" transform="translate(300,15)" font-family="sans-serif" font-size="10px" fill="#000" opacity="1">3.0</text><text text-anchor="middle" transform="translate(350,15)" font-family="sans-serif" font-size="10px" fill="#000" opacity="1">3.5</text><text text-anchor="end" transform="translate(400,15)" font-family="sans-serif" font-size="10px" fill="#000" opacity="1">4.0</text></g><g class="mark-rule role-axis-domain" pointer-events="none"><line transform="translate(0,0)" x2="400" y2="0" stroke="#888" stroke-width="1" opacity="1"/></g><g class="mark-text role-axis-title" pointer-events="none"><text text-anchor="middle" transform="translate(200,30)" font-family="sans-serif" font-size="11px" font-weight="bold" fill="#000" opacity="1">t</text></g></g><path class="foreground" aria-hidden="true" d="" pointer-events="none" display="none"/></g></g><g class="mark-group role-axis" role="graphics-symbol" aria-roledescription="axis" aria-label="Y-axis titled 'x' for a linear scale with values from 0.0 to 1.1"><g transform="translate(0.5,0.5)"><path class="background" aria-hidden="true" d="M0,0h0v0h0Z" pointer-events="none"/><g><g class="mark-rule role-axis-tick" pointer-events="none"><line transform="translate(0,80)" x2="-5" y2="0" stroke="#888" stroke-width="1" opacity="1"/><line transform="translate(0,44)" x2="-5" y2="0" stroke="#888" stroke-width="1" opacity="1"/><line transform="translate(0,7)" x2="-5" y2="0" stroke="#888" stroke-width="1" opacity="1"/></g><g class="mark-text role-axis-label" pointer-events="none"><text text-anchor="end" transform="translate(-7,83)" font-family="sans-serif" font-size="10px" fill="#000" opacity="1">0.0</text><text text-anchor="end" transform="translate(-7,46.63636363636363)" font-family="sans-serif" font-size="10px" fill="#000" opacity="1">0.5</text><text text-anchor="end" transform="translate(-7,10.272727272727275)" font-family="sans-serif" font-size="10px" fill="#000" opacity="1">1.0</text></g><g class="mark-rule role-axis-domain" pointer-events="none"><line transform="translate(0,80)" x2="0" y2="-80" stroke="#888" stroke-width="1" opacity="1"/></g><g class="mark-text role-axis-title" pointer-events="none"><text text-anchor="middle" transform="translate(-24.9013671875,40) rotate(-90) translate(0,-2)" font-family="sans-serif" font-size="11px" font-weight="bold" fill="#000" opacity="1">x</text></g></g><path class="foreground" aria-hidden="true" d="" pointer-events="none" display="none"/></g></g><g class="mark-line role-mark concat_0_marks" role="graphics-symbol" aria-roledescription="line mark container"><path d="M0,20.66261418543992L1.0024119009146786,20.659081688584855L2.004823801829357,20.648968667344676L3.0072357027440355,20.633001825706838L4.009647603658714,20.611907867658807L5.012059504573393,20.586413497188076L6.014471405488071,20.557245418282104L7.016883306402749,20.52513033492838L8.019295207317429,20.49079495111437L9.021707108232107,20.454965970827566L10.024119009146785,20.418370098055423L11.026530910061464,20.38173403678541L12.028942810976142,20.345784491005013L13.031354711890822,20.311248164701723L14.033766612805499,20.278851761862988L15.036178513720177,20.249321986476296L16.038590414634857,20.223385542529122L17.041002315549537,20.201769134008927L18.043414216464214,20.185199464903214L19.04582611737889,20.174403239199428L20.04823801829357,20.17010716088506L21.05064991920825,20.17303793394758L22.053061820122927,20.18392226237446L23.055473721037608,20.203486850153176L24.057885621952284,20.232458401271217L25.060297522866964,20.271563619716044L26.062709423781644,20.32152920947513L27.065121324696324,20.383081874535954L28.067533225610998,20.456948318885992L29.069945126525674,20.543855246512706L30.072357027440354,20.644529361403592L31.074768928355034,20.750918618495035L32.077180829269714,20.847310975156226L33.079592730184395,20.933503393042887L34.082004631099075,21.009637473764027L35.08441653201375,21.075854818928654L36.08682843292843,21.132297030145793L37.0892403338431,21.179105709024448L38.09165223475778,21.216422457173625L39.09406413567246,21.244388876202358L40.09647603658714,21.263146567719637L41.09888793750182,21.272837133334484L42.1012998384165,21.273602174655927L43.10371173933118,21.265583293292973L44.106123640245855,21.24892209085461L45.108535541160535,21.223760168949877L46.110947442075215,21.190239129187766L47.11335934298989,21.148500573177323L48.11577124390457,21.098686102527545L49.11818314481925,21.040937318847448L50.12059504573393,20.97539582374603L51.12300694664861,20.902203218832305L52.12541884756329,20.82150110571532L53.12783074847797,20.733431086004046L54.13024264939265,20.638134761307523L55.13265455030732,20.535753733234756L56.135066451221995,20.42642960339475L57.137478352136675,20.31030397339653L58.13989025305135,20.187518444849104L59.14230215396603,20.0582146193615L60.14471405488071,19.922534098542705L61.14712595579539,19.780618484001742L62.14953785671007,19.632609377347634L63.15194975762475,19.478648380189377L64.15436165853943,19.318877094136013L65.15677355945411,19.15288753087176L66.15918546036879,18.977601672847165L67.16159736128347,18.793841364930746L68.16400926219815,18.60320086306502L69.16642116311283,18.407274423192533L70.1688330640275,18.207656301255824L71.17124496494218,18.00594075319743L72.17365686585686,17.80372203495989L73.17606876677154,17.60259440248572L74.1784806676862,17.40415211171749L75.18089256860088,17.209989418597715L76.18330446951556,17.021700579068934L77.18571637043024,16.840879849073673L78.18812827134492,16.669121484554488L79.1905401722596,16.508019741453907L80.19295207317428,16.359168875714467L81.19536397408896,16.22416314327871L82.19777587500364,16.104596800089162L83.20018777591832,16.002064102088358L84.202599676833,15.918159305218849L85.20501157774768,15.854476665423158L86.20742347866236,15.812610438643828L87.20983537957704,15.79415488082339L88.21224728049171,15.800704247904402L89.21465918140639,15.833852795829362L90.21707108232107,15.895194780540836L91.21948298323575,15.986324457981338L92.22189488415043,16.108836084093447L93.2243067850651,16.264323914819656L94.22671868597978,16.454382206102505L95.22913058689446,16.680605213884554L96.23154248780914,16.944587194108323L97.23395438872382,17.247922402716362L98.2363662896385,17.592205095651188L99.23877819055318,17.979029528855357L100.24119009146786,18.40998995827137L101.24360199238254,18.886680639841835L102.24601389329722,19.41069582950921L103.2484257942119,19.98362978321608L104.25083769512658,20.604428780177777L105.25324959604126,21.26802232841903L106.25566149695594,21.970229229217306L107.25807339787062,22.706869293590426L108.2604852987853,23.473762332556227L109.26289719969998,24.266728157132505L110.26530910061464,25.081586578337117L111.26772100152932,25.914157407187865L112.27013290244399,26.76026045470256L113.27254480335867,27.615715531899063L114.27495670427335,28.476342449795176L115.27736860518803,29.337961019408727L116.2797805061027,30.19639105175754L117.28219240701738,31.04745235785942L118.28460430793206,31.88696474873222L119.28701620884674,32.71074803539375L120.28942810976142,33.514622028861815L121.2918400106761,34.29440654015426L122.29425191159078,35.04592138028891L123.29666381250546,35.76498636028358L124.29907571342014,36.44742129115609L125.30148761433482,37.089045983924265L126.3038995152495,37.68568024960593L127.30631141616418,38.233143899218916L128.30872331707886,38.72725674378104L129.31113521799352,39.163838594310114L130.31354711890822,39.53870926182398L131.31595901982288,39.84768855734046L132.31837092073758,40.08659629187736L133.32078282165224,40.25125227645252L134.32319472256694,40.33747632208375L135.3256066234816,40.34108823978889L136.3280185243963,40.25790784058573L137.33043042531096,40.08375493549215L138.33284232622566,39.814449335525914L139.33525422714033,39.44581085170488L140.337666128055,38.973659295046865L141.34007802896969,38.39381447656969L142.34248992988435,37.702096207291156L143.34490183079905,36.89432429822914L144.3473137317137,35.96631856040141L145.34972563262838,34.913898804825855L146.35213753354307,33.770126748387604L147.35454943445774,32.60682355209703L148.3569613353724,31.42927389017921L149.3593732362871,30.24100880223844L150.36178513720176,29.045559327879104L151.36419703811646,27.846456506705508L152.36660893903112,26.647231378321994L153.36902083994582,25.451414982332913L154.37143274086048,24.262538358342603L155.37384464177518,23.08413254595541L156.37625654268984,21.91972858477566L157.37866844360454,20.772857514407708L158.3810803445192,19.647050374455883L159.3834922454339,18.545838204524514L160.38590414634857,17.472752044217962L161.38831604726326,16.431322933140564L162.39072794817793,15.425081910896665L163.39313984909262,14.457560017090572L164.3955517500073,13.532288291326662L165.39796365092195,12.652797773209246L166.40037555183665,11.822619502342686L167.4027874527513,11.045284518331329L168.405199353666,10.324323860779456L169.40761125458067,9.663268569291485L170.41002315549537,9.0656496834717L171.41243505641003,8.534998242924479L172.41484695732473,8.074845287254142L173.4172588582394,7.688721856065017L174.4196707591541,7.380158988961467L175.42208266006875,7.152687725547819L176.42449456098342,7.009839105428428L177.42690646189808,6.955144168207621L178.42931836281278,6.992133953489734L179.43173026372745,7.1243395008790955L180.43414216464214,7.355291849980068L181.4365540655568,7.688522040397006L182.4389659664715,8.127561111734183L183.44137786738617,8.675940103596016L184.44378976830086,9.337190055586815L185.44620166921553,10.114842007310925L186.4486135701302,11.012426998372646L187.4510254710449,12.033476068376352L188.45343737195955,13.181520256926404L189.45584927287425,14.460090603627105L190.4582611737889,15.820896658470645L191.4606730747036,17.19691524836896L192.46308497561827,18.58425385040972L193.46549687653297,19.979251539933234L194.46790877744763,21.37824739227974L195.47032067836233,22.777580482789528L196.472732579277,24.173589886802873L197.4751444801917,25.562614679660037L198.47755638110635,26.940993936701318L199.47996828202105,28.305066733266955L200.4823801829357,29.65117214469723L201.48479208385038,30.975649246332388L202.48720398476507,32.2748371135128L203.48961588567974,33.54507482157862L204.49202778659443,34.78270144587022L205.4944396875091,35.98405606172776L206.4968515884238,37.14547774449164L207.49926348933846,38.26330556950202L208.50167539025315,39.333878612099255L209.50408729116782,40.35353594762354L210.50649919208252,41.31861665141525L211.50891109299715,42.22545979881453L212.51132299391188,43.07040446516177L213.5137348948265,43.849789725797166L214.51614679574124,44.559954656061045L215.51855869665587,45.19723833129362L216.5209705975706,45.75797982683521L217.52338249848523,46.238518218026044L218.52579439939996,46.63519258020646L219.5282063003146,46.94434198871667L220.5306182012293,47.16230551889698L221.53303010214395,47.28542224608763L222.53544200305865,47.310031245628906L223.5378539039733,47.23247159286112L224.54026580488798,47.0490823631245L225.54267770580267,46.75620263175933L226.54508960671734,46.35017147410588L227.54750150763203,45.827327965504395L228.5499134085467,45.18401118129523L229.5523253094614,44.416560196818565L230.55473721037606,43.52131408741472L231.55714911129076,42.49461192842395L232.5595610122054,41.33279279518657L233.56197291312012,40.032195763042765L234.56438481403475,38.63138777883509L235.56679671494948,37.23239776763413L236.5692086158641,35.84218814675127L237.57162051677884,34.46318380323746L238.57403241769347,33.09780962414392L239.5764443186082,31.74849049652159L240.57885621952283,30.41765130742168L241.58126812043753,29.107716943895163L242.5836800213522,27.821112292993213L243.5860919222669,26.56026224176682L244.58850382318155,25.3275916772672L245.59091572409625,24.125525486545286L246.59332762501091,22.956488556652268L247.5957395259256,21.82290577463914L248.59815142684027,20.727202027557077L249.60056332775497,19.67180220245708L250.60297522866964,18.65913118639031L251.60538712958433,17.691613866407767L252.607799030499,16.771675129560606L253.6102109314137,15.90173986289984L254.61262283232836,15.084232953476624L255.61503473324305,14.321579288341972L256.6174466341577,13.616203754547023L257.61985853507235,12.970531239142842L258.62227043598705,12.38698662918047L259.62468233690174,11.867994811711027L260.62709423781644,11.415980673785597L261.6295061387311,11.033369102455257L262.63191803964577,10.7225849847711L263.63432994056046,10.486053207784174L264.63674184147516,10.326198658545591L265.6391537423898,10.245446224106418L266.6415656433045,10.246220791517748L267.6439775442192,10.330947247830675L268.6463894451339,10.502050480096266L269.6488013460485,10.761955375365577L270.6512132469632,11.11308682068973L271.65362514787785,11.557869703119792L272.6560370487926,12.098728909706873L273.65844894970724,12.738089327502005L274.66086085062193,13.47837584355628L275.66327275153657,14.322013344920812L276.6656846524513,15.271426718646675L277.66809655336596,16.329040851784917L278.67050845428065,17.461446909613237L279.6729203551953,18.562030365277373L280.67533225611,19.62366824555536L281.6777441570247,20.64652642949558L282.68015605793937,21.630770796146564L283.682567958854,22.576567224556676L284.6849798597687,23.484081593774455L285.6873917606834,24.353479782848293L286.6898036615981,25.184927670826703L287.69221556251273,25.978591136758062L288.6946274634274,26.734636059690928L289.6970393643421,27.45322831867366L290.69945126525676,28.134533792754752L291.70186316617145,28.778718360982687L292.70427506708614,29.385947902405867L293.70668696800084,29.956388296072795L294.7090988689155,30.490205421031888L295.71151076983017,30.987565156331627L296.7139226707448,31.44863338102045L297.71633457165956,31.873575974146835L298.7187464725742,32.26255881475919L299.7211583734889,32.61574778190603L300.7235702744035,32.93330875463576L301.7259821753183,33.215407611996866L302.7283940762329,33.462210233037794L303.7308059771476,33.673882496807L304.73321787806225,33.85059028235291L305.73562977897694,33.992499468724034L306.73804167989164,34.0997759349688L307.74045358080633,34.172585560135644L308.74286548172097,34.21109422327302L309.74527738263566,34.21546780342943L310.74768928355036,34.1858721796533L311.75010118446505,34.122473230993066L312.7525130853797,34.025436836497235L313.7549249862944,33.89492887521419L314.7573368872091,33.73111522619244L315.7597487881238,33.53416176848043L316.7621606890384,33.304234381126605L317.7645725899531,33.04149894317942L318.7669844908678,32.74612133368734L319.7693963917825,32.418267431698816L320.77180829269713,32.058103116262295L321.77422019361177,31.665794266426257L322.7766320945265,31.24150676123911L323.77904399544116,30.785406479749355L324.78145589635585,30.29765930100541L325.7838677972705,29.783930182137883L326.78627969818524,29.285074250130123L327.7886915990999,28.809010057195934L328.7911035000146,28.3552951426298L329.7935154009292,27.923487045726255L330.7959273018439,27.51314330577978L331.7983392027586,27.12382146208494L332.8007511036733,26.7550790539362L333.80316300458793,26.40647362062812L334.8055749055026,26.077562701455168L335.8079868064173,25.7679038357119L336.810398707332,25.4770545626928L337.81281060824665,25.204572421692404L338.81522250916134,24.95001495200522L339.81763441007604,24.71293969292576L340.82004631099073,24.492904183748536L341.82245821190537,24.289465963768073L342.82487011282007,24.102182572278885L343.82728201373476,23.930611548575467L344.82969391464945,23.774310431952365L345.8321058155641,23.63283676170407L346.8345177164788,23.50574807712509L347.8369296173935,23.392601917509968L348.8393415183082,23.292955822153203L349.8417534192228,23.20636733034931L350.8441653201375,23.132393981392802L351.84657722105214,23.07059331457819L352.84898912196684,23.020522869200004L353.85140102288153,22.98174018455275L354.85381292379617,22.95380279993094L355.85622482471086,22.936268254629084L356.85863672562556,22.928694087941714L357.86104862654025,22.930637839163317L358.8634605274549,22.941657047588436L359.8658724283696,22.961309252511573L360.8682843292843,22.989151993227253L361.870696230199,23.02474280902998L362.8731081311136,23.067639239214266L363.8755200320283,23.117398823074645L364.877931932943,23.173579099905595L365.8803438338577,23.235737609001657L366.88275573477233,23.30343188965734L367.885167635687,23.37621948116717L368.8875795366017,23.45365792282564L369.8899914375164,23.53530475392729L370.89240333843105,23.620717513766607L371.89481523934575,23.709453741638143L372.8972271402604,23.80107097683636L373.89963904117513,23.895126758655813L374.9020509420898,23.991178626391036L375.90446284300447,24.088784119336477L376.9068747439191,24.187500776786692L377.90928664483386,24.286886138036216L378.9116985457485,24.38649774237949L379.9141104466632,24.485893129111123L380.9165223475778,24.58462983752557L381.9189342484925,24.682265406917374L382.9213461494072,24.778357376581024L383.9237580503219,24.872463285811037L384.92616995123655,24.964140673901927L385.92858185215124,25.052947080148236L386.93099375306593,25.138440043844472L387.93340565398057,25.220177104285135L388.93581755489527,25.297715800764735L389.93822945580996,25.370613672577775L390.94064135672465,25.438428259018842L391.9430532576393,25.50071709938237L392.945465158554,25.557037732962886L393.9478770594687,25.60694769905495L394.9502889603834,25.65000453695304L395.952700861298,25.685765785951673L396.9551127622127,25.713788985345385L397.95752466312734,25.733631674428654L398.9599365640421,25.74485139249603L399.96234846495673,43.63636363636363" stroke="#4c78a8" stroke-width="2"/></g></g><path class="foreground" aria-hidden="true" d="" display="none"/></g></g><g class="mark-group role-scope concat_1_group" role="graphics-object" aria-roledescription="group mark container"><g transform="translate(0,134)"><path class="background" aria-hidden="true" d="M0.5,0.5h400v80h-400Z" stroke="#ddd"/><g><g class="mark-group role-axis" role="graphics-symbol" aria-roledescription="axis" aria-label="X-axis for a linear scale with values from 0 to 4"><g transform="translate(0.5,80.5)"><path class="background" aria-hidden="true" d="M0,0h0v0h0Z" pointer-events="none"/><g><g class="mark-rule role-axis-grid" pointer-events="none"><line transform="translate(0,-80)" x2="0" y2="80" stroke="#ddd" stroke-width="1" opacity="1"/><line transform="translate(50,-80)" x2="0" y2="80" stroke="#ddd" stroke-width="1" opacity="1"/><line transform="translate(100,-80)" x2="0" y2="80" stroke="#ddd" stroke-width="1" opacity="1"/><line transform="translate(150,-80)" x2="0" y2="80" stroke="#ddd" stroke-width="1" opacity="1"/><line transform="translate(200,-80)" x2="0" y2="80" stroke="#ddd" stroke-width="1" opacity="1"/><line transform="translate(250,-80)" x2="0" y2="80" stroke="#ddd" stroke-width="1" opacity="1"/><line transform="translate(300,-80)" x2="0" y2="80" stroke="#ddd" stroke-width="1" opacity="1"/><line transform="translate(350,-80)" x2="0" y2="80" stroke="#ddd" stroke-width="1" opacity="1"/><line transform="translate(400,-80)" x2="0" y2="80" stroke="#ddd" stroke-width="1" opacity="1"/></g></g><path class="foreground" aria-hidden="true" d="" pointer-events="none" display="none"/></g></g><g class="mark-group role-axis" role="graphics-symbol" aria-roledescription="axis" aria-label="Y-axis for a linear scale with values from 0.0 to 0.5"><g transform="translate(0.5,0.5)"><path class="background" aria-hidden="true" d="M0,0h0v0h0Z" pointer-events="none"/><g><g class="mark-rule role-axis-grid" pointer-events="none"><line transform="translate(0,80)" x2="400" y2="0" stroke="#ddd" stroke-width="1" opacity="1"/><line transform="translate(0,44)" x2="400" y2="0" stroke="#ddd" stroke-width="1" opacity="1"/><line transform="translate(0,9)" x2="400" y2="0" stroke="#ddd" stroke-width="1" opacity="1"/></g></g><path class="foreground" aria-hidden="true" d="" pointer-events="none" display="none"/></g></g><g class="mark-group role-axis" role="graphics-symbol" aria-roledescription="axis" aria-label="X-axis titled 't' for a linear scale with values from 0 to 4"><g transform="translate(0.5,80.5)"><path class="background" aria-hidden="true" d="M0,0h0v0h0Z" pointer-events="none"/><g><g class="mark-rule role-axis-tick" pointer-events="none"><line transform="translate(0,0)" x2="0" y2="5" stroke="#888" stroke-width="1" opacity="1"/><line transform="translate(50,0)" x2="0" y2="5" stroke="#888" stroke-width="1" opacity="1"/><line transform="translate(100,0)" x2="0" y2="5" stroke="#888" stroke-width="1" opacity="1"/><line transform="translate(150,0)" x2="0" y2="5" stroke="#888" stroke-width="1" opacity="1"/><line transform="translate(200,0)" x2="0" y2="5" stroke="#888" stroke-width="1" opacity="1"/><line transform="translate(250,0)" x2="0" y2="5" stroke="#888" stroke-width="1" opacity="1"/><line transform="translate(300,0)" x2="0" y2="5" stroke="#888" stroke-width="1" opacity="1"/><line transform="translate(350,0)" x2="0" y2="5" stroke="#888" stroke-width="1" opacity="1"/><line transform="translate(400,0)" x2="0" y2="5" stroke="#888" stroke-width="1" opacity="1"/></g><g class="mark-text role-axis-label" pointer-events="none"><text text-anchor="start" transform="translate(0,15)" font-family="sans-serif" font-size="10px" fill="#000" opacity="1">0.0</text><text text-anchor="middle" transform="translate(50,15)" font-family="sans-serif" font-size="10px" fill="#000" opacity="1">0.5</text><text text-anchor="middle" transform="translate(100,15)" font-family="sans-serif" font-size="10px" fill="#000" opacity="1">1.0</text><text text-anchor="middle" transform="translate(150,15)" font-family="sans-serif" font-size="10px" fill="#000" opacity="1">1.5</text><text text-anchor="middle" transform="translate(200,15)" font-family="sans-serif" font-size="10px" fill="#000" opacity="1">2.0</text><text text-anchor="middle" transform="translate(250,15)" font-family="sans-serif" font-size="10px" fill="#000" opacity="1">2.5</text><text text-anchor="middle" transform="translate(300,15)" font-family="sans-serif" font-size="10px" fill="#000" opacity="1">3.0</text><text text-anchor="middle" transform="translate(350,15)" font-family="sans-serif" font-size="10px" fill="#000" opacity="1">3.5</text><text text-anchor="end" transform="translate(400,15)" font-family="sans-serif" font-size="10px" fill="#000" opacity="1">4.0</text></g><g class="mark-rule role-axis-domain" pointer-events="none"><line transform="translate(0,0)" x2="400" y2="0" stroke="#888" stroke-width="1" opacity="1"/></g><g class="mark-text role-axis-title" pointer-events="none"><text text-anchor="middle" transform="translate(200,30)" font-family="sans-serif" font-size="11px" font-weight="bold" fill="#000" opacity="1">t</text></g></g><path class="foreground" aria-hidden="true" d="" pointer-events="none" display="none"/></g></g><g class="mark-group role-axis" role="graphics-symbol" aria-roledescription="axis" aria-label="Y-axis titled 'z' for a linear scale with values from 0.0 to 0.5"><g transform="translate(0.5,0.5)"><path class="background" aria-hidden="true" d="M0,0h0v0h0Z" pointer-events="none"/><g><g class="mark-rule role-axis-tick" pointer-events="none"><line transform="translate(0,80)" x2="-5" y2="0" stroke="#888" stroke-width="1" opacity="1"/><line transform="translate(0,44)" x2="-5" y2="0" stroke="#888" stroke-width="1" opacity="1"/><line transform="translate(0,9)" x2="-5" y2="0" stroke="#888" stroke-width="1" opacity="1"/></g><g class="mark-text role-axis-label" pointer-events="none"><text text-anchor="end" transform="translate(-7,83)" font-family="sans-serif" font-size="10px" fill="#000" opacity="1">0.0</text><text text-anchor="end" transform="translate(-7,47.44444444444444)" font-family="sans-serif" font-size="10px" fill="#000" opacity="1">0.2</text><text text-anchor="end" transform="translate(-7,11.888888888888884)" font-family="sans-serif" font-size="10px" fill="#000" opacity="1">0.4</text></g><g class="mark-rule role-axis-domain" pointer-events="none"><line transform="translate(0,80)" x2="0" y2="-80" stroke="#888" stroke-width="1" opacity="1"/></g><g class="mark-text role-axis-title" pointer-events="none"><text text-anchor="middle" transform="translate(-24.9013671875,40) rotate(-90) translate(0,-2)" font-family="sans-serif" font-size="11px" font-weight="bold" fill="#000" opacity="1">z</text></g></g><path class="foreground" aria-hidden="true" d="" pointer-events="none" display="none"/></g></g><g class="mark-line role-mark concat_1_marks" role="graphics-symbol" aria-roledescription="line mark container"><path d="M0,8.888888888888884L1.0024119009146786,8.831968580675307L2.004823801829357,8.671693421377284L3.0072357027440355,8.42379205900893L4.009647603658714,8.103993141584347L5.012059504573393,7.7280253171176305L6.014471405488071,7.311617233622876L7.016883306402749,6.870497539114178L8.019295207317429,6.420394881605667L9.021707108232107,5.977037909111411L10.024119009146785,5.556155269645506L11.026530910061464,5.1734756112220825L12.028942810976142,4.844727581855226L13.031354711890822,4.585639829559014L14.033766612805499,4.411941002347586L15.036178513720177,4.33935974823501L16.038590414634857,4.383624715235408L17.041002315549537,4.560464551362866L18.043414216464214,4.885607904631497L19.04582611737889,5.374783423055378L20.04823801829357,6.043719754648622L21.05064991920825,6.908145547425351L22.053061820122927,7.983789449399605L23.055473721037608,9.286380108585561L24.057885621952284,10.83164617299726L25.060297522866964,12.635316290648833L26.062709423781644,14.713119109554356L27.065121324696324,17.080783277727942L28.067533225610998,19.754037443183687L29.069945126525674,22.748610253935713L30.072357027440354,26.080230357998087L31.074768928355034,29.426520549929485L32.077180829269714,32.194205839837664L33.079592730184395,34.406031432712524L34.082004631099075,36.09821340608799L35.08441653201375,37.306967837497986L36.08682843292843,38.06851080447643L37.0892403338431,38.41905838455726L38.09165223475778,38.3948266552744L39.09406413567246,38.03203169416176L40.09647603658714,37.36688957875329L41.09888793750182,36.435616386582865L42.1012998384165,35.27442819518447L43.10371173933118,33.91954108209199L44.106123640245855,32.40717112483938L45.108535541160535,30.773534400960525L46.110947442075215,29.054846987989393L47.11335934298989,27.28732496345989L48.11577124390457,25.507184404905907L49.11818314481925,23.750641389861443L50.12059504573393,22.05391199586036L51.12300694664861,20.453212300436626L52.12541884756329,18.984758381124138L53.12783074847797,17.684766315456805L54.13024264939265,16.58945218096859L55.13265455030732,15.73503205519339L56.135066451221995,15.157722015665192L57.137478352136675,14.89373813991783L58.13989025305135,14.97929650548528L59.14230215396603,15.450613189901405L60.14471405488071,16.343904270700264L61.14712595579539,17.695385825415684L62.14953785671007,19.541273931581564L63.15194975762475,21.91778466673182L64.15436165853943,24.86113410840053L65.15677355945411,28.277839375767435L66.15918546036879,31.318360421787197L67.16159736128347,33.845731526170894L68.16400926219815,35.88881820883736L69.16642116311283,37.476485989705466L70.1688330640275,38.63760038869411L71.17124496494218,39.401026925722135L72.17365686585686,39.79563112070841L73.17606876677154,39.85027849357181L74.1784806676862,39.5938345642312L75.18089256860088,39.055164852605444L76.18330446951556,38.263134878613414L77.18571637043024,37.24661016217398L78.18812827134492,36.034456223206L79.1905401722596,34.65553858162835L80.19295207317428,33.13872275735989L81.19536397408896,31.51287427031952L82.19777587500364,29.806858640426064L83.20018777591832,28.049541387598413L84.202599676833,26.269788031755414L85.20501157774768,24.496464092815977L86.20742347866236,22.75843509069892L87.20983537957704,21.084566545323142L88.21224728049171,19.50372397660753L89.21465918140639,18.044772904470896L90.21707108232107,16.736578848832107L91.21948298323575,15.60800732961007L92.22189488415043,14.687923866723676L93.2243067850651,14.005193980091759L94.22671868597978,13.588683189633173L95.22913058689446,13.467257015266778L96.23154248780914,13.669780976911508L97.23395438872382,14.225120594486196L98.2363662896385,15.162141387909625L99.23877819055318,16.5097088771008L100.24119009146786,18.29668858197847L101.24360199238254,20.551946022461713L102.24601389329722,23.304346718469038L103.2484257942119,26.58275618991957L104.25083769512658,29.908654350059916L105.25324959604126,32.75107459879857L106.25566149695594,35.1337874813029L107.25807339787062,37.08085916678648L108.2604852987853,38.616355824462914L109.26289719969998,39.7643436235458L110.26530910061464,40.54888873324873L111.26772100152932,40.9940573227853L112.27013290244399,41.123915561369095L113.27254480335867,40.96252961821374L114.27495670427335,40.53396566253282L115.27736860518803,39.86228986353992L116.2797805061027,38.97156839044864L117.28219240701738,37.88586741247257L118.28460430793206,36.629253098825316L119.28701620884674,35.22579161872048L120.28942810976142,33.699549141371634L121.2918400106761,32.0745918359924L122.29425191159078,30.37498587179634L123.29666381250546,28.624797417997094L124.29907571342014,26.848092643808226L125.30148761433482,25.068937718443358L126.3038995152495,23.311398811116053L127.30631141616418,21.59954209103993L128.30872331707886,19.95743372742858L129.31113521799352,18.40913988949561L130.31354711890822,16.97872674645459L131.31595901982288,15.690260467519135L132.31837092073758,14.567807221902829L133.32078282165224,13.635433178819287L134.32319472256694,12.917204507482092L135.3256066234816,12.43718737710485L136.3280185243963,12.21944795690109L137.33043042531096,12.288052416084536L138.33284232622566,12.66706692386868L139.33525422714033,13.38055764946712L140.337666128055,14.452590762093553L141.34007802896969,15.907232430961464L142.34248992988435,17.768548825284523L143.34490183079905,20.060606114276275L144.3473137317137,22.807470467150324L145.34972563262838,26.033208053120234L146.35213753354307,29.42736127284001L147.35454943445774,32.368530534722275L148.3569613353724,34.862809198778464L149.3593732362871,36.93240670650802L150.36178513720176,38.599532499410365L151.36419703811646,39.886396018984925L152.36660893903112,40.81520670673113L153.36902083994582,41.40817400414842L154.37143274086048,41.687507352736226L155.37384464177518,41.67541619399395L156.37625654268984,41.39410996942105L157.37866844360454,40.865798120516956L158.3810803445192,40.11269008878108L159.3834922454339,39.156995315712855L160.38590414634857,38.02092324281172L161.38831604726326,36.726683311577105L162.39072794817793,35.29648496350842L163.39313984909262,33.75253764010512L164.3955517500073,32.11705078286664L165.39796365092195,30.412233833292383L166.40037555183665,28.660296232881784L167.4027874527513,26.883447423134285L168.405199353666,25.103896845549293L169.40761125458067,23.343853941626254L170.41002315549537,21.625528152864632L171.41243505641003,19.971128920763785L172.41484695732473,18.402865686823198L173.4172588582394,16.942947892542264L174.4196707591541,15.613584979420452L175.42208266006875,14.436986388957145L176.42449456098342,13.435361562651842L177.42690646189808,12.630919942003924L178.42931836281278,12.0458709685128L179.43173026372745,11.702424083677903L180.43414216464214,11.622788728998703L181.4365540655568,11.829174345974609L182.4389659664715,12.343790376105064L183.44137786738617,13.188846260889493L184.44378976830086,14.386551441827331L185.44620166921553,15.95911536041795L186.4486135701302,17.928747458160814L187.4510254710449,20.317657176555485L188.45343737195955,23.148053957101126L189.45584927287425,26.442147241297327L190.4582611737889,29.79596491388144L191.4606730747036,32.68826346205431L192.46308497561827,35.139006191929425L193.46549687653297,37.170100338010606L194.46790877744763,38.80345313480167L195.47032067836233,40.060971816806436L196.472732579277,40.9645636185287L197.4751444801917,41.53613577447232L198.47755638110635,41.7975955191411L199.47996828202105,41.77085008703884L200.4823801829357,41.47780671266938L201.48479208385038,40.94037263053656L202.48720398476507,40.18045507514412L203.48961588567974,39.21996128099596L204.49202778659443,38.080798482595824L205.4944396875091,36.784873914447644L206.4968515884238,35.35409481105509L207.49926348933846,33.81036840692212L208.50167539025315,32.17560193655244L209.50408729116782,30.471702634449997L210.50649919208252,28.72057773511844L211.50891109299715,26.944134473061744L212.51132299391188,25.164280082783613L213.5137348948265,23.402921798787986L214.51614679574124,21.681966855578516L215.51855869665587,20.023322487659208L216.5209705975706,18.448895929533737L217.52338249848523,16.98059441570603L218.52579439939996,15.640325180679717L219.5282063003146,14.449995458958877L220.5306182012293,13.431512485047143L221.53303010214395,12.60678349344845L222.53544200305865,11.99771571866652L223.5378539039733,11.626216395205198L224.54026580488798,11.51419275756834L225.54267770580267,11.68355204025974L226.54508960671734,12.156201477783206L227.54750150763203,12.954048304642534L228.5499134085467,14.098999755341577L229.5523253094614,15.612963064384138L230.55473721037606,17.51784546627409L231.55714911129076,19.835554195515222L232.5595610122054,22.58799648661129L233.56197291312012,25.797079574066288L234.56438481403475,29.21075434190235L235.56679671494948,32.18551451415408L236.5692086158641,34.71354447651879L237.57162051677884,36.81687261359299L238.57403241769347,38.5175273099728L239.5764443186082,39.837536950254645L240.57885621952283,40.79892991903472L241.58126812043753,41.4237346009094L242.5836800213522,41.733979380474906L243.5860919222669,41.751692642327576L244.58850382318155,41.49890277106368L245.59091572409625,40.99763815127952L246.59332762501091,40.26992716757139L247.5957395259256,39.33779820453555L248.59815142684027,38.223279646768376L249.60056332775497,36.948399878866034L250.60297522866964,35.53518728542495L251.60538712958433,34.0056702510413L252.607799030499,32.38187716031148L253.6102109314137,30.68583639783169L254.61262283232836,28.939576348198308L255.61503473324305,27.165125396007504L256.6174466341577,25.384511925855733L257.61985853507235,23.619764322339194L258.62227043598705,21.892910970054142L259.62468233690174,20.22598025359696L260.62709423781644,18.64100055756383L261.6295061387311,17.160000266551194L262.63191803964577,15.805007765155201L263.63432994056046,14.598051437972206L264.63674184147516,13.561159669598482L265.6391537423898,12.716360844630348L266.6415656433045,12.085683347664133L267.6439775442192,11.691155563296034L268.6463894451339,11.554805876122396L269.6488013460485,11.698662670739512L270.6512132469632,12.144754331743641L271.65362514787785,12.915109243731111L272.6560370487926,14.031755791298268L273.65844894970724,15.516722359041237L274.66086085062193,17.392037331556534L275.66327275153657,19.679729093440173L276.6656846524513,22.401826029288774L277.66809655336596,25.580356523698306L278.67050845428065,29.014780585481887L279.6729203551953,32.05517461671636L280.67533225611,34.67525105355148L281.6777441570247,36.89417487661401L282.68015605793937,38.73111106653114L283.682567958854,40.20522460392969L284.6849798597687,41.335680469436795L285.6873917606834,42.141643643679316L286.6898036615981,42.64227910728433L287.69221556251273,42.856751840878786L288.6946274634274,42.804226825089664L289.6970393643421,42.50386904054399L290.69945126525676,41.97484346786874L291.70186316617145,41.236315087690876L292.70427506708614,40.30744888063744L293.70668696800084,39.207409827335326L294.7090988689155,37.95536290841163L295.71151076983017,36.570473104493246L296.7139226707448,35.07190539620726L297.71633457165956,33.478824764180565L298.7187464725742,31.81039618904024L299.7211583734889,30.08578465141315L300.7235702744035,28.32415513192646L301.7259821753183,26.54467261120697L302.7283940762329,24.76650206988184L303.7308059771476,23.0088084885779L304.73321787806225,21.290756847922268L305.73562977897694,19.631512128541814L306.73804167989164,18.050239311063674L307.74045358080633,16.566103376114683L308.74286548172097,15.198269304321963L309.74527738263566,13.9659020763124L310.74768928355036,12.888166672713028L311.75010118446505,11.984228074150822L312.7525130853797,11.273251261252852L313.7549249862944,10.774401214645906L314.7573368872091,10.506842914957257L315.7597487881238,10.489741342813623L316.7621606890384,10.742261478842101L317.7645725899531,11.283568303669735L318.7669844908678,12.13282679792341L319.7693963917825,13.309201942230224L320.77180829269713,14.831858717217026L321.77422019361177,16.719962103510973L322.7766320945265,18.99267708173899L323.77904399544116,21.669168632527906L324.78145589635585,24.768601736504962L325.7838677972705,28.245132743349117L326.78627969818524,31.629052063670187L327.7886915990999,34.826539096427126L328.7911035000146,37.84147461640785L329.7935154009292,40.67773939839975L330.7959273018439,43.33921421719072L331.7983392027586,45.82977984756816L332.8007511036733,48.15331706431994L333.80316300458793,50.31370664223349L334.8055749055026,52.31482935609666L335.8079868064173,54.16056598069689L336.810398707332,55.85479729082199L337.81281060824665,57.40140406125947L338.81522250916134,58.804267066797124L339.81763441007604,60.06726708222242L340.82004631099073,61.194284882323146L341.82245821190537,62.18920124188685L342.82487011282007,63.05589693570124L343.82728201373476,63.79825273855391L344.82969391464945,64.42014942523255L345.8321058155641,64.92546777052475L346.8345177164788,65.31808854921819L347.8369296173935,65.6018925361005L348.8393415183082,65.78076050595932L349.8417534192228,65.8585732335823L350.8441653201375,65.83921149375709L351.84657722105214,65.72655606127131L352.84898912196684,65.52448771091265L353.85140102288153,65.23688721746868L354.85381292379617,64.86763535572709L355.85622482471086,64.42061290047553L356.85863672562556,63.89970062650164L357.86104862654025,63.30877930859301L358.8634605274549,62.65172972153735L359.8658724283696,61.93243264012225L360.8682843292843,61.15476883913543L361.870696230199,60.322619093364416L362.8731081311136,59.43986417759697L363.8755200320283,58.51038486662063L364.877931932943,57.538061935223155L365.8803438338577,56.52677615819204L366.88275573477233,55.48040831031511L367.885167635687,54.402839166379835L368.8875795366017,53.29794950117395L369.8899914375164,52.169620089485065L370.89240333843105,51.02173170610088L371.89481523934575,49.85816512580895L372.8972271402604,48.68280112339701L373.89963904117513,47.49952047365259L374.9020509420898,46.31220395136349L375.90446284300447,45.12473233131715L376.9068747439191,43.94098638830145L377.90928664483386,42.76484689710381L378.9116985457485,41.60019463251203L379.9141104466632,40.45091036931362L380.9165223475778,39.32087488229638L381.9189342484925,38.21396894624773L382.9213461494072,37.13407333595561L383.9237580503219,36.085068826207404L384.92616995123655,35.07083619179092L385.92858185215124,34.09525620749373L386.93099375306593,33.162209648103406L387.93340565398057,32.27557728840778L388.93581755489527,31.439239903194274L389.93822945580996,30.657078267250697L390.94064135672465,29.93297315536462L391.9430532576393,29.270805342323712L392.945465158554,28.674455602915543L393.9478770594687,28.147804711927876L394.9502889603834,27.694733444148305L395.952700861298,27.319122574364457L396.9551127622127,27.024852877363912L397.95752466312734,26.815805127934436L398.9599365640421,26.695860100863598L399.96234846495673,26.66666666666666" stroke="#4c78a8" stroke-width="2"/></g></g><path class="foreground" aria-hidden="true" d="" display="none"/></g></g><g class="mark-group role-scope concat_2_group" role="graphics-object" aria-roledescription="group mark container"><g transform="translate(0,270)"><path class="background" aria-hidden="true" d="M0.5,0.5h400v80h-400Z" stroke="#ddd"/><g><g class="mark-group role-axis" role="graphics-symbol" aria-roledescription="axis" aria-label="X-axis for a linear scale with values from 0 to 4"><g transform="translate(0.5,80.5)"><path class="background" aria-hidden="true" d="M0,0h0v0h0Z" pointer-events="none"/><g><g class="mark-rule role-axis-grid" pointer-events="none"><line transform="translate(0,-80)" x2="0" y2="80" stroke="#ddd" stroke-width="1" opacity="1"/><line transform="translate(50,-80)" x2="0" y2="80" stroke="#ddd" stroke-width="1" opacity="1"/><line transform="translate(100,-80)" x2="0" y2="80" stroke="#ddd" stroke-width="1" opacity="1"/><line transform="translate(150,-80)" x2="0" y2="80" stroke="#ddd" stroke-width="1" opacity="1"/><line transform="translate(200,-80)" x2="0" y2="80" stroke="#ddd" stroke-width="1" opacity="1"/><line transform="translate(250,-80)" x2="0" y2="80" stroke="#ddd" stroke-width="1" opacity="1"/><line transform="translate(300,-80)" x2="0" y2="80" stroke="#ddd" stroke-width="1" opacity="1"/><line transform="translate(350,-80)" x2="0" y2="80" stroke="#ddd" stroke-width="1" opacity="1"/><line transform="translate(400,-80)" x2="0" y2="80" stroke="#ddd" stroke-width="1" opacity="1"/></g></g><path class="foreground" aria-hidden="true" d="" pointer-events="none" display="none"/></g></g><g class="mark-group role-axis" role="graphics-symbol" aria-roledescription="axis" aria-label="Y-axis for a linear scale with values from −0.8 to 0.4"><g transform="translate(0.5,0.5)"><path class="background" aria-hidden="true" d="M0,0h0v0h0Z" pointer-events="none"/><g><g class="mark-rule role-axis-grid" pointer-events="none"><line transform="translate(0,60)" x2="400" y2="0" stroke="#ddd" stroke-width="1" opacity="1"/><line transform="translate(0,27)" x2="400" y2="0" stroke="#ddd" stroke-width="1" opacity="1"/></g></g><path class="foreground" aria-hidden="true" d="" pointer-events="none" display="none"/></g></g><g class="mark-group role-axis" role="graphics-symbol" aria-roledescription="axis" aria-label="X-axis titled 't' for a linear scale with values from 0 to 4"><g transform="translate(0.5,80.5)"><path class="background" aria-hidden="true" d="M0,0h0v0h0Z" pointer-events="none"/><g><g class="mark-rule role-axis-tick" pointer-events="none"><line transform="translate(0,0)" x2="0" y2="5" stroke="#888" stroke-width="1" opacity="1"/><line transform="translate(50,0)" x2="0" y2="5" stroke="#888" stroke-width="1" opacity="1"/><line transform="translate(100,0)" x2="0" y2="5" stroke="#888" stroke-width="1" opacity="1"/><line transform="translate(150,0)" x2="0" y2="5" stroke="#888" stroke-width="1" opacity="1"/><line transform="translate(200,0)" x2="0" y2="5" stroke="#888" stroke-width="1" opacity="1"/><line transform="translate(250,0)" x2="0" y2="5" stroke="#888" stroke-width="1" opacity="1"/><line transform="translate(300,0)" x2="0" y2="5" stroke="#888" stroke-width="1" opacity="1"/><line transform="translate(350,0)" x2="0" y2="5" stroke="#888" stroke-width="1" opacity="1"/><line transform="translate(400,0)" x2="0" y2="5" stroke="#888" stroke-width="1" opacity="1"/></g><g class="mark-text role-axis-label" pointer-events="none"><text text-anchor="start" transform="translate(0,15)" font-family="sans-serif" font-size="10px" fill="#000" opacity="1">0.0</text><text text-anchor="middle" transform="translate(50,15)" font-family="sans-serif" font-size="10px" fill="#000" opacity="1">0.5</text><text text-anchor="middle" transform="translate(100,15)" font-family="sans-serif" font-size="10px" fill="#000" opacity="1">1.0</text><text text-anchor="middle" transform="translate(150,15)" font-family="sans-serif" font-size="10px" fill="#000" opacity="1">1.5</text><text text-anchor="middle" transform="translate(200,15)" font-family="sans-serif" font-size="10px" fill="#000" opacity="1">2.0</text><text text-anchor="middle" transform="translate(250,15)" font-family="sans-serif" font-size="10px" fill="#000" opacity="1">2.5</text><text text-anchor="middle" transform="translate(300,15)" font-family="sans-serif" font-size="10px" fill="#000" opacity="1">3.0</text><text text-anchor="middle" transform="translate(350,15)" font-family="sans-serif" font-size="10px" fill="#000" opacity="1">3.5</text><text text-anchor="end" transform="translate(400,15)" font-family="sans-serif" font-size="10px" fill="#000" opacity="1">4.0</text></g><g class="mark-rule role-axis-domain" pointer-events="none"><line transform="translate(0,0)" x2="400" y2="0" stroke="#888" stroke-width="1" opacity="1"/></g><g class="mark-text role-axis-title" pointer-events="none"><text text-anchor="middle" transform="translate(200,30)" font-family="sans-serif" font-size="11px" font-weight="bold" fill="#000" opacity="1">t</text></g></g><path class="foreground" aria-hidden="true" d="" pointer-events="none" display="none"/></g></g><g class="mark-group role-axis" role="graphics-symbol" aria-roledescription="axis" aria-label="Y-axis titled 'theta' for a linear scale with values from −0.8 to 0.4"><g transform="translate(0.5,0.5)"><path class="background" aria-hidden="true" d="M0,0h0v0h0Z" pointer-events="none"/><g><g class="mark-rule role-axis-tick" pointer-events="none"><line transform="translate(0,60)" x2="-5" y2="0" stroke="#888" stroke-width="1" opacity="1"/><line transform="translate(0,27)" x2="-5" y2="0" stroke="#888" stroke-width="1" opacity="1"/></g><g class="mark-text role-axis-label" pointer-events="none"><text text-anchor="end" transform="translate(-7,63)" font-family="sans-serif" font-size="10px" fill="#000" opacity="1">−0.5</text><text text-anchor="end" transform="translate(-7,29.66666666666667)" font-family="sans-serif" font-size="10px" fill="#000" opacity="1">0.0</text></g><g class="mark-rule role-axis-domain" pointer-events="none"><line transform="translate(0,80)" x2="0" y2="-80" stroke="#888" stroke-width="1" opacity="1"/></g><g class="mark-text role-axis-title" pointer-events="none"><text text-anchor="middle" transform="translate(-30.7412109375,40) rotate(-90) translate(0,-2)" font-family="sans-serif" font-size="11px" font-weight="bold" fill="#000" opacity="1">theta</text></g></g><path class="foreground" aria-hidden="true" d="" pointer-events="none" display="none"/></g></g><g class="mark-line role-mark concat_2_marks" role="graphics-symbol" aria-roledescription="line mark container"><path d="M0,29.409838950882605L1.0024119009146786,29.392151469534618L2.004823801829357,29.340687935019247L3.0072357027440355,29.25784671162935L4.009647603658714,29.146026163657783L5.012059504573393,29.007624655397404L6.014471405488071,28.845040551141068L7.016883306402749,28.66067221518165L8.019295207317429,28.456918011811982L9.021707108232107,28.236176305324943L10.024119009146785,28.0008454600134L11.026530910061464,27.753323840170196L12.028942810976142,27.496009810088182L13.031354711890822,27.23130173406024L14.033766612805499,26.961597976379224L15.036178513720177,26.689296901337983L16.038590414634857,26.416796873229387L17.041002315549537,26.146496256346285L18.043414216464214,25.88079341498153L19.04582611737889,25.62208671342801L20.04823801829357,25.372774515978556L21.05064991920825,25.135255186926038L22.053061820122927,24.911927090563317L23.055473721037608,24.70518859118325L24.057885621952284,24.51743805307869L25.060297522866964,24.35107384054251L26.062709423781644,24.208494317867554L27.065121324696324,24.09209784934669L28.067533225610998,24.004282799272776L29.069945126525674,23.947447531938675L30.072357027440354,23.92399041163724L31.074768928355034,23.934198793939807L32.077180829269714,23.974231695641972L33.079592730184395,24.042204569461134L34.082004631099075,24.13629703481945L35.08441653201375,24.254688711139096L36.08682843292843,24.395559217842198L37.0892403338431,24.557088174350923L38.09165223475778,24.737455200087453L39.09406413567246,24.93483991447392L40.09647603658714,25.14742193693249L41.09888793750182,25.373380886885315L42.1012998384165,25.610896383754557L43.10371173933118,25.85814804696237L44.106123640245855,26.11331549593091L45.108535541160535,26.374578350082345L46.110947442075215,26.640116228838817L47.11335934298989,26.9081087516225L48.11577124390457,27.17673553785555L49.11818314481925,27.444176206960105L50.12059504573393,27.70861037835833L51.12300694664861,27.968217671472395L52.12541884756329,28.221177705724454L53.12783074847797,28.46567010053665L54.13024264939265,28.699874475331157L55.13265455030732,28.921970449530114L56.135066451221995,29.130137642555695L57.137478352136675,29.32255567383006L58.13989025305135,29.497404162775354L59.14230215396603,29.652862728813734L60.14471405488071,29.787110991367356L61.14712595579539,29.898328569858403L62.14953785671007,29.984695083709L63.15194975762475,30.044390152341318L64.15436165853943,30.075593395177506L65.15677355945411,30.07342279242308L66.15918546036879,30.01698531772428L67.16159736128347,29.905237825739217L68.16400926219815,29.74129159501662L69.16642116311283,29.528257904105217L70.1688330640275,29.269248031553712L71.17124496494218,28.967373255910847L72.17365686585686,28.62574485572532L73.17606876677154,28.247474109545863L74.1784806676862,27.8356722959212L75.18089256860088,27.393450693400034L76.18330446951556,26.923920580531096L77.18571637043024,26.430193235863115L78.18812827134492,25.915379937944792L79.1905401722596,25.382591965324863L80.19295207317428,24.834940596552038L81.19536397408896,24.27553711017503L82.19777587500364,23.707492784742577L83.20018777591832,23.133918898803394L84.202599676833,22.557926730906193L85.20501157774768,21.9826275595997L86.20742347866236,21.41113266343264L87.20983537957704,20.846553320953713L88.21224728049171,20.292000810711663L89.21465918140639,19.750586411255195L90.21707108232107,19.225421401133033L91.21948298323575,18.719617058893895L92.22189488415043,18.236284663086508L93.2243067850651,17.778535492259593L94.22671868597978,17.34948082496185L95.22913058689446,16.952231939742024L96.23154248780914,16.589900115148815L97.23395438872382,16.265596629730954L98.2363662896385,15.982432762037151L99.23877819055318,15.74351979061615L100.24119009146786,15.551968994016638L101.24360199238254,15.41089165078736L102.24601389329722,15.323399039477028L103.2484257942119,15.29260243863436L104.25083769512658,15.344909299373937L105.25324959604126,15.503522692977407L106.25566149695594,15.763167870797172L107.25807339787062,16.118555711549796L108.2604852987853,16.564397093951833L109.26289719969998,17.095402896719865L110.26530910061464,17.706283998570463L111.26772100152932,18.391751278220177L112.27013290244399,19.146515614385578L113.27254480335867,19.96528788578326L114.27495670427335,20.84277897112976L115.27736860518803,21.77369974914166L116.2797805061027,22.75276109853553L117.28219240701738,23.77467389802792L118.28460430793206,24.834149026335428L119.28701620884674,25.925897362174588L120.28942810976142,27.044629784261982L121.2918400106761,28.185057171314185L122.29425191159078,29.341890402047753L123.29666381250546,30.50984035517927L124.29907571342014,31.683617909425273L125.30148761433482,32.85793394350236L126.3038995152495,34.02749933612709L127.30631141616418,35.187024966016025L128.30872331707886,36.33122171188573L129.31113521799352,37.454800452452766L130.31354711890822,38.55247206643374L131.31595901982288,39.61894743254518L132.31837092073758,40.64893742950366L133.32078282165224,41.63715293602575L134.32319472256694,42.57830483082802L135.3256066234816,43.46710399262703L136.3280185243963,44.29826130013937L137.33043042531096,45.06648763208158L138.33284232622566,45.76649386717026L139.33525422714033,46.39299088412195L140.337666128055,46.94068956165323L141.34007802896969,47.404300778480646L142.34248992988435,47.77853541332079L143.34490183079905,48.05810434489021L144.3473137317137,48.23771845190551L145.34972563262838,48.31208861308322L146.35213753354307,48.26396808900782L147.35454943445774,48.07173532331565L148.3569613353724,47.741601652484704L149.3593732362871,47.28042043637597L150.36178513720176,46.69504503485044L151.36419703811646,45.99232880776911L152.36660893903112,45.17912511499298L153.36902083994582,44.26228731638305L154.37143274086048,43.24866877180034L155.37384464177518,42.145122841105795L156.37625654268984,40.95850288416045L157.37866844360454,39.6956622608253L158.3810803445192,38.36345433096133L159.3834922454339,36.96873245442954L160.38590414634857,35.51834999109094L161.38831604726326,34.01916030080652L162.39072794817793,32.478016743437266L163.39313984909262,30.901772678844182L164.3955517500073,29.29728146688828L165.39796365092195,27.67139646743054L166.40037555183665,26.03097104033197L167.4027874527513,24.38285854545356L168.405199353666,22.733912342656303L169.40761125458067,21.09098579180121L170.41002315549537,19.46093225274928L171.41243505641003,17.85060508536148L172.41484695732473,16.26685764949883L173.4172588582394,14.716543305022345L174.4196707591541,13.206515411792985L175.42208266006875,11.74362732967178L176.42449456098342,10.33473241851973L177.42690646189808,8.9866840381978L178.42931836281278,7.706335548566994L179.43173026372745,6.5005403094883185L180.43414216464214,5.376151680822767L181.4365540655568,4.340023022431332L182.4389659664715,3.399007694175049L183.44137786738617,2.5599590559148577L184.44378976830086,1.8297304675117854L185.44620166921553,1.2151752888268597L186.4486135701302,0.7231468797210105L187.4510254710449,0.36049860005529233L188.45343737195955,0.13408380969064382L189.45584927287425,0.050755868488128186L190.4582611737889,0.12289706456987126L191.4606730747036,0.3553848969680473L192.46308497561827,0.7406732136873106L193.46549687653297,1.2711810115937183L194.46790877744763,1.9393272875533896L195.47032067836233,2.737531038432346L196.472732579277,3.658211261096689L197.4751444801917,4.693786952412511L198.47755638110635,5.836677109245825L199.47996828202105,7.07930072846275L200.4823801829357,8.414076806929343L201.48479208385038,9.83342434151166L202.48720398476507,11.329762329075841L203.48961588567974,12.89550976648786L204.49202778659443,14.52308565061391L205.4944396875091,16.20490897831992L206.4968515884238,17.9333987464721L207.49926348933846,19.700973951936387L208.50167539025315,21.50005359157901L209.50408729116782,23.323056662265866L210.50649919208252,25.16240216086321L211.50891109299715,27.01050908423694L212.51132299391188,28.859796429253297L213.5137348948265,30.70268319277817L214.51614679574124,32.53158837167784L215.51855869665587,34.33893096281817L216.5209705975706,36.1171299630654L217.52338249848523,37.85860436928548L218.52579439939996,39.55577317834461L219.5282063003146,41.201055387108724L220.5306182012293,42.786869992444004L221.53303010214395,44.30563599121641L222.53544200305865,45.74977238029216L223.5378539039733,47.111698156537194L224.54026580488798,48.38383231681764L225.54267770580267,49.558593857999625L226.54508960671734,50.628401776949126L227.54750150763203,51.58567507053229L228.5499134085467,52.42283273561511L229.5523253094614,53.13229376906378L230.55473721037606,53.70647716774418L231.55714911129076,54.13780192852261L232.5595610122054,54.41868704826501L233.56197291312012,54.54155152383741L234.56438481403475,54.502804356076595L235.56679671494948,54.31208065555051L236.5692086158641,53.976792607126676L237.57162051677884,53.504068716968106L238.57403241769347,52.901037491237936L239.5764443186082,52.174827436099136L240.57885621952283,51.33256705771487L241.58126812043753,50.3813848622481L242.5836800213522,49.32840935586198L243.5860919222669,48.180769044719455L244.58850382318155,46.945592434983716L245.59091572409625,45.630008032817706L246.59332762501091,44.241144344384594L247.5957395259256,42.78612987584732L248.59815142684027,41.27209313336909L249.60056332775497,39.70616262311281L250.60297522866964,38.09546685124169L251.60538712958433,36.44713432391863L252.607799030499,34.76829354730686L253.6102109314137,33.066073027569296L254.61262283232836,31.347601270869117L255.61503473324305,29.62000678336927L256.6174466341577,27.89041807123293L257.61985853507235,26.165963640623104L258.62227043598705,24.45377199770278L259.62468233690174,22.760971648635156L260.62709423781644,21.09469109958315L261.6295061387311,19.46205885670998L262.63191803964577,17.87020342617855L263.63432994056046,16.326253314152062L264.63674184147516,14.837337026793422L265.6391537423898,13.410583070265858L266.6415656433045,12.053119950732292L267.6439775442192,10.772076174355902L268.6463894451339,9.574580247299629L269.6488013460485,8.46776067572665L270.6512132469632,7.458745965799896L271.65362514787785,6.554664623682589L272.6560370487926,5.762645155537616L273.65844894970724,5.089816067528163L274.66086085062193,4.543305865817278L275.66327275153657,4.130243056567933L276.6656846524513,3.8577561459432808L277.66809655336596,3.7329736401063673L278.67050845428065,3.7483376360480225L279.6729203551953,3.861373365593046L280.67533225611,4.065124263856275L281.6777441570247,4.355454043244116L282.68015605793937,4.728226416163102L283.682567958854,5.179305095019631L284.6849798597687,5.704553792220235L285.6873917606834,6.299836220171322L286.6898036615981,6.961016091279415L287.69221556251273,7.683957117950939L288.6946274634274,8.4645230125924L289.6970393643421,9.298577487610222L290.69945126525676,10.181984255410885L291.70186316617145,11.11060702840092L292.70427506708614,12.080309518986692L293.70668696800084,13.086955439574766L294.7090988689155,14.126408502571515L295.71151076983017,15.194532420383506L296.7139226707448,16.287190905417113L297.71633457165956,17.40024767007889L298.7187464725742,18.52956642677522L299.7211583734889,19.671010887912665L300.7235702744035,20.820444765897577L301.7259821753183,21.97373177313655L302.7283940762329,23.12673562203593L303.7308059771476,24.275320025002305L304.73321787806225,25.41534869444203L305.73562977897694,26.542685342761672L306.73804167989164,27.6531936823676L307.74045358080633,28.742737425666398L308.74286548172097,29.807180285064412L309.74527738263566,30.84238597296821L310.74768928355036,31.844218201784173L311.75010118446505,32.808540683918864L312.7525130853797,33.731217131778656L313.7549249862944,34.60811125777012L314.7573368872091,35.43508677429959L315.7597487881238,36.20800739377367L316.7621606890384,36.92273682859874L317.7645725899531,37.575138791181296L318.7669844908678,38.16107699392781L319.7693963917825,38.676415149244754L320.77180829269713,39.11701696953857L321.77422019361177,39.47874616721574L322.7766320945265,39.75746645468274L323.77904399544116,39.94904154434606L324.78145589635585,40.04933514861211L325.7838677972705,40.06833290356269L326.78627969818524,40.10798346367676L327.7886915990999,40.18838494809817L328.7911035000146,40.308395109785394L329.7935154009292,40.46687170169692L330.7959273018439,40.662672476791215L331.7983392027586,40.89465518802677L332.8007511036733,41.16167758836207L333.80316300458793,41.46259743075557L334.8055749055026,41.79627246816578L335.8079868064173,42.16156045355115L336.810398707332,42.557319139870195L337.81281060824665,42.98240628008135L338.81522250916134,43.43567962714314L339.81763441007604,43.915996934014L340.82004631099073,44.422215953652454L341.82245821190537,44.95319443901694L342.82487011282007,45.507790143065975L343.82728201373476,46.084860818757996L344.82969391464945,46.68326421905154L345.8321058155641,47.30185809690502L346.8345177164788,47.93950020527697L347.8369296173935,48.59504829712584L348.8393415183082,49.267360125410136L349.8417534192228,49.955293443088294L350.8441653201375,50.657706003118854L351.84657722105214,51.373455558460215L352.84898912196684,52.10139986207092L353.85140102288153,52.84039666690945L354.85381292379617,53.589303725934236L355.85622482471086,54.34697879210382L356.85863672562556,55.11227961837661L357.86104862654025,55.884063957711156L358.8634605274549,56.66118956306589L359.8658724283696,57.44251418739932L360.8682843292843,58.22689558366989L361.870696230199,59.01319150483613L362.8731081311136,59.80025970385647L363.8755200320283,60.58695793368942L364.877931932943,61.37214394729344L365.8803438338577,62.15467549762705L366.88275573477233,62.933410337648645L367.885167635687,63.70720622031682L368.8875795366017,64.47492089858994L369.8899914375164,65.23541212542658L370.89240333843105,65.98753765378514L371.89481523934575,66.73015523662417L372.8972271402604,67.4621226269021L373.89963904117513,68.18229757757744L374.9020509420898,68.88953784160863L375.90446284300447,69.5827011719542L376.9068747439191,70.26064532157258L377.90928664483386,70.92222804342231L378.9116985457485,71.5663070904618L379.9141104466632,72.19174021564959L380.9165223475778,72.79738517194409L381.9189342484925,73.38209971230387L382.9213461494072,73.94474158968733L383.9237580503219,74.484168557053L384.92616995123655,74.99923836735933L385.92858185215124,75.4888087735648L386.93099375306593,75.95173752862792L387.93340565398057,76.38688238550712L388.93581755489527,76.79310109716096L389.93822945580996,77.16925141654782L390.94064135672465,77.51419109662625L391.9430532576393,77.8267778903547L392.945465158554,78.10586955069168L393.9478770594687,78.35032383059561L394.9502889603834,78.55899848302502L395.952700861298,78.73075126093838L396.9551127622127,78.86443991729419L397.95752466312734,78.95892220505085L398.9599365640421,79.01305587716693L399.96234846495673,26.66666666666666" stroke="#4c78a8" stroke-width="2"/></g></g><path class="foreground" aria-hidden="true" d="" display="none"/></g></g><g class="mark-group role-scope concat_3_group" role="graphics-object" aria-roledescription="group mark container"><g transform="translate(0,409)"><path class="background" aria-hidden="true" d="M0.5,0.5h400v300h-400Z" stroke="#ddd"/><g><g class="mark-group role-axis" role="graphics-symbol" aria-roledescription="axis" aria-label="X-axis for a linear scale with values from 0.4 to 1.1"><g transform="translate(0.5,300.5)"><path class="background" aria-hidden="true" d="M0,0h0v0h0Z" pointer-events="none"/><g><g class="mark-rule role-axis-grid" pointer-events="none"><line transform="translate(0,-300)" x2="0" y2="300" stroke="#ddd" stroke-width="1" opacity="1"/><line transform="translate(31,-300)" x2="0" y2="300" stroke="#ddd" stroke-width="1" opacity="1"/><line transform="translate(62,-300)" x2="0" y2="300" stroke="#ddd" stroke-width="1" opacity="1"/><line transform="translate(92,-300)" x2="0" y2="300" stroke="#ddd" stroke-width="1" opacity="1"/><line transform="translate(123,-300)" x2="0" y2="300" stroke="#ddd" stroke-width="1" opacity="1"/><line transform="translate(154,-300)" x2="0" y2="300" stroke="#ddd" stroke-width="1" opacity="1"/><line transform="translate(185,-300)" x2="0" y2="300" stroke="#ddd" stroke-width="1" opacity="1"/><line transform="translate(215,-300)" x2="0" y2="300" stroke="#ddd" stroke-width="1" opacity="1"/><line transform="translate(246,-300)" x2="0" y2="300" stroke="#ddd" stroke-width="1" opacity="1"/><line transform="translate(277,-300)" x2="0" y2="300" stroke="#ddd" stroke-width="1" opacity="1"/><line transform="translate(308,-300)" x2="0" y2="300" stroke="#ddd" stroke-width="1" opacity="1"/><line transform="translate(338,-300)" x2="0" y2="300" stroke="#ddd" stroke-width="1" opacity="1"/><line transform="translate(369,-300)" x2="0" y2="300" stroke="#ddd" stroke-width="1" opacity="1"/><line transform="translate(400,-300)" x2="0" y2="300" stroke="#ddd" stroke-width="1" opacity="1"/></g></g><path class="foreground" aria-hidden="true" d="" pointer-events="none" display="none"/></g></g><g class="mark-group role-axis" role="graphics-symbol" aria-roledescription="axis" aria-label="Y-axis for a linear scale with values from 0.0 to 0.5"><g transform="translate(0.5,0.5)"><path class="background" aria-hidden="true" d="M0,0h0v0h0Z" pointer-events="none"/><g><g class="mark-rule role-axis-grid" pointer-events="none"><line transform="translate(0,300)" x2="400" y2="0" stroke="#ddd" stroke-width="1" opacity="1"/><line transform="translate(0,267)" x2="400" y2="0" stroke="#ddd" stroke-width="1" opacity="1"/><line transform="translate(0,233)" x2="400" y2="0" stroke="#ddd" stroke-width="1" opacity="1"/><line transform="translate(0,200)" x2="400" y2="0" stroke="#ddd" stroke-width="1" opacity="1"/><line transform="translate(0,167)" x2="400" y2="0" stroke="#ddd" stroke-width="1" opacity="1"/><line transform="translate(0,133)" x2="400" y2="0" stroke="#ddd" stroke-width="1" opacity="1"/><line transform="translate(0,100)" x2="400" y2="0" stroke="#ddd" stroke-width="1" opacity="1"/><line transform="translate(0,67)" x2="400" y2="0" stroke="#ddd" stroke-width="1" opacity="1"/><line transform="translate(0,33)" x2="400" y2="0" stroke="#ddd" stroke-width="1" opacity="1"/><line transform="translate(0,0)" x2="400" y2="0" stroke="#ddd" stroke-width="1" opacity="1"/></g></g><path class="foreground" aria-hidden="true" d="" pointer-events="none" display="none"/></g></g><g class="mark-group role-axis" role="graphics-symbol" aria-roledescription="axis" aria-label="X-axis titled 'x' for a linear scale with values from 0.4 to 1.1"><g transform="translate(0.5,300.5)"><path class="background" aria-hidden="true" d="M0,0h0v0h0Z" pointer-events="none"/><g><g class="mark-rule role-axis-tick" pointer-events="none"><line transform="translate(0,0)" x2="0" y2="5" stroke="#888" stroke-width="1" opacity="1"/><line transform="translate(31,0)" x2="0" y2="5" stroke="#888" stroke-width="1" opacity="1"/><line transform="translate(62,0)" x2="0" y2="5" stroke="#888" stroke-width="1" opacity="1"/><line transform="translate(92,0)" x2="0" y2="5" stroke="#888" stroke-width="1" opacity="1"/><line transform="translate(123,0)" x2="0" y2="5" stroke="#888" stroke-width="1" opacity="1"/><line transform="translate(154,0)" x2="0" y2="5" stroke="#888" stroke-width="1" opacity="1"/><line transform="translate(185,0)" x2="0" y2="5" stroke="#888" stroke-width="1" opacity="1"/><line transform="translate(215,0)" x2="0" y2="5" stroke="#888" stroke-width="1" opacity="1"/><line transform="translate(246,0)" x2="0" y2="5" stroke="#888" stroke-width="1" opacity="1"/><line transform="translate(277,0)" x2="0" y2="5" stroke="#888" stroke-width="1" opacity="1"/><line transform="translate(308,0)" x2="0" y2="5" stroke="#888" stroke-width="1" opacity="1"/><line transform="translate(338,0)" x2="0" y2="5" stroke="#888" stroke-width="1" opacity="1"/><line transform="translate(369,0)" x2="0" y2="5" stroke="#888" stroke-width="1" opacity="1"/><line transform="translate(400,0)" x2="0" y2="5" stroke="#888" stroke-width="1" opacity="1"/></g><g class="mark-text role-axis-label" pointer-events="none"><text text-anchor="start" transform="translate(0,15)" font-family="sans-serif" font-size="10px" fill="#000" opacity="1">0.40</text><text text-anchor="middle" transform="translate(30.76923076923076,15)" font-family="sans-serif" font-size="10px" fill="#000" opacity="1">0.45</text><text text-anchor="middle" transform="translate(61.53846153846152,15)" font-family="sans-serif" font-size="10px" fill="#000" opacity="1">0.50</text><text text-anchor="middle" transform="translate(92.3076923076923,15)" font-family="sans-serif" font-size="10px" fill="#000" opacity="1">0.55</text><text text-anchor="middle" transform="translate(123.07692307692304,15)" font-family="sans-serif" font-size="10px" fill="#000" opacity="1">0.60</text><text text-anchor="middle" transform="translate(153.84615384615384,15)" font-family="sans-serif" font-size="10px" fill="#000" opacity="1">0.65</text><text text-anchor="middle" transform="translate(184.61538461538456,15)" font-family="sans-serif" font-size="10px" fill="#000" opacity="1">0.70</text><text text-anchor="middle" transform="translate(215.3846153846154,15)" font-family="sans-serif" font-size="10px" fill="#000" opacity="1">0.75</text><text text-anchor="middle" transform="translate(246.15384615384616,15)" font-family="sans-serif" font-size="10px" fill="#000" opacity="1">0.80</text><text text-anchor="middle" transform="translate(276.92307692307685,15)" font-family="sans-serif" font-size="10px" fill="#000" opacity="1">0.85</text><text text-anchor="middle" transform="translate(307.6923076923077,15)" font-family="sans-serif" font-size="10px" fill="#000" opacity="1">0.90</text><text text-anchor="middle" transform="translate(338.4615384615384,15)" font-family="sans-serif" font-size="10px" fill="#000" opacity="1">0.95</text><text text-anchor="middle" transform="translate(369.2307692307692,15)" font-family="sans-serif" font-size="10px" fill="#000" opacity="1">1.00</text><text text-anchor="end" transform="translate(400,15)" font-family="sans-serif" font-size="10px" fill="#000" opacity="1">1.05</text></g><g class="mark-rule role-axis-domain" pointer-events="none"><line transform="translate(0,0)" x2="400" y2="0" stroke="#888" stroke-width="1" opacity="1"/></g><g class="mark-text role-axis-title" pointer-events="none"><text text-anchor="middle" transform="translate(200,30)" font-family="sans-serif" font-size="11px" font-weight="bold" fill="#000" opacity="1">x</text></g></g><path class="foreground" aria-hidden="true" d="" pointer-events="none" display="none"/></g></g><g class="mark-group role-axis" role="graphics-symbol" aria-roledescription="axis" aria-label="Y-axis titled 'z' for a linear scale with values from 0.0 to 0.5"><g transform="translate(0.5,0.5)"><path class="background" aria-hidden="true" d="M0,0h0v0h0Z" pointer-events="none"/><g><g class="mark-rule role-axis-tick" pointer-events="none"><line transform="translate(0,300)" x2="-5" y2="0" stroke="#888" stroke-width="1" opacity="1"/><line transform="translate(0,267)" x2="-5" y2="0" stroke="#888" stroke-width="1" opacity="1"/><line transform="translate(0,233)" x2="-5" y2="0" stroke="#888" stroke-width="1" opacity="1"/><line transform="translate(0,200)" x2="-5" y2="0" stroke="#888" stroke-width="1" opacity="1"/><line transform="translate(0,167)" x2="-5" y2="0" stroke="#888" stroke-width="1" opacity="1"/><line transform="translate(0,133)" x2="-5" y2="0" stroke="#888" stroke-width="1" opacity="1"/><line transform="translate(0,100)" x2="-5" y2="0" stroke="#888" stroke-width="1" opacity="1"/><line transform="translate(0,67)" x2="-5" y2="0" stroke="#888" stroke-width="1" opacity="1"/><line transform="translate(0,33)" x2="-5" y2="0" stroke="#888" stroke-width="1" opacity="1"/><line transform="translate(0,0)" x2="-5" y2="0" stroke="#888" stroke-width="1" opacity="1"/></g><g class="mark-text role-axis-label" pointer-events="none"><text text-anchor="end" transform="translate(-7,303)" font-family="sans-serif" font-size="10px" fill="#000" opacity="1">0.00</text><text text-anchor="end" transform="translate(-7,269.66666666666663)" font-family="sans-serif" font-size="10px" fill="#000" opacity="1">0.05</text><text text-anchor="end" transform="translate(-7,236.33333333333334)" font-family="sans-serif" font-size="10px" fill="#000" opacity="1">0.10</text><text text-anchor="end" transform="translate(-7,203.00000000000003)" font-family="sans-serif" font-size="10px" fill="#000" opacity="1">0.15</text><text text-anchor="end" transform="translate(-7,169.66666666666669)" font-family="sans-serif" font-size="10px" fill="#000" opacity="1">0.20</text><text text-anchor="end" transform="translate(-7,136.33333333333331)" font-family="sans-serif" font-size="10px" fill="#000" opacity="1">0.25</text><text text-anchor="end" transform="translate(-7,103.00000000000001)" font-family="sans-serif" font-size="10px" fill="#000" opacity="1">0.30</text><text text-anchor="end" transform="translate(-7,69.6666666666667)" font-family="sans-serif" font-size="10px" fill="#000" opacity="1">0.35</text><text text-anchor="end" transform="translate(-7,36.333333333333314)" font-family="sans-serif" font-size="10px" fill="#000" opacity="1">0.40</text><text text-anchor="end" transform="translate(-7,3)" font-family="sans-serif" font-size="10px" fill="#000" opacity="1">0.45</text></g><g class="mark-rule role-axis-domain" pointer-events="none"><line transform="translate(0,300)" x2="0" y2="-300" stroke="#888" stroke-width="1" opacity="1"/></g><g class="mark-text role-axis-title" pointer-events="none"><text text-anchor="middle" transform="translate(-30.462890625,150) rotate(-90) translate(0,-2)" font-family="sans-serif" font-size="11px" font-weight="bold" fill="#000" opacity="1">z</text></g></g><path class="foreground" aria-hidden="true" d="" pointer-events="none" display="none"/></g></g><g class="mark-line role-mark concat_3_marks" role="graphics-symbol" aria-roledescription="line mark container"><path d="M30.453581767755367,44.99143394499945L30.66181176387393,47.275438100431685L31.10985575271358,43.59831148201949L31.70356868625636,50.36817181892679L32.661610773561925,43.178222840881276L33.54787548008975,54.18748297109579L35.139823885113394,43.81332015097402L36.16375509056074,58.65121942754894L38.57547214218105,45.58575554168702L39.52023046285649,63.67722905889761L42.999532599578124,48.5776811424095L43.58632454216361,69.18335973575151L48.331060273669394,75.08745932872203L48.442982312117316,52.871249082530916L53.723460602560415,81.30737570841943L54.936798334612156,58.54861149144052L59.732548474023936,87.76095674545495L61.53846153846152,99.99999999999997L62.51195772187545,65.69192049852784L66.32734683324654,94.36605031043855L71.19943752872041,74.38332823318208L73.47687862541548,101.04050427398154L81.03021480995979,84.70498682479234L81.1501667957172,107.70216650669414L89.31623428933928,114.26888487918748L89.42156104794023,46.639452664143185L89.45212342852209,48.43951690305784L90.12539519504385,45.82292983837909L90.1817115069402,51.13287442057233L91.57495445334543,54.62927708213561L91.59899669968185,46.08019656031701L92.03526662040741,96.73904840274858L93.59648143788839,58.83847675319676L93.87773639170383,47.50150096450755L96.21092163072011,63.67022529920471L96.99698510095874,50.1770911855017L97.94410405146785,120.65850726207164L99.38290420199132,69.03427458560853L100.99211365729576,54.19721535785082L103.07705832185272,74.84037647785718L103.88825725601083,109.54032878213381L105.89849289056421,59.65212161610549L107.00279902729062,126.78888152595798L107.25801316045526,80.99828284139973L111.7514936306133,66.63205809481695L111.89039788794983,87.41774554168519L115.72586504309585,120.6956794280778L116.46134216199387,132.5778555414566L116.93884167448697,94.0085164441626L118.58648670729195,75.22727292853602L122.3679736902177,100.68034741428085L126.28875640076507,137.94327717917866L126.4388429504496,85.52801425181372L127.48917721979693,130.17579178694547L128.14242310529283,107.3429903174891L134.22681908986303,113.90619701923627L135.3439331899351,97.62453019920088L136.45406468879048,142.80299430973434L139.15767551106762,138.0632723009737L140.5857908140793,120.2797193849715L141.25373397098176,52.3721327861715L141.29074118768978,56.99350989120736L141.50415847985673,48.33062502267386L141.61658372192923,62.12288766043006L142.04061112236636,44.940855278065584L142.2326651656487,67.68839741648878L142.86168830656194,42.274692229698196L143.1403891107966,73.6181704820318L143.96598644049539,40.404004554922146L144.3411591493215,79.84033817970851L145.0220044367203,110.35260477315005L145.3521019322178,39.40066093108972L145.83637887317153,86.28303183216711L146.92628997125786,147.07485480373484L147.018631189781,39.336530035551085L147.18396744809237,126.37330928014362L147.6274518742956,92.87438276205691L148.96417062123643,40.28348054565788L149.71578174464187,99.54252229202613L150.71084164185916,144.440727412398L151.18731663463566,42.31338113876151L152.10277207615894,106.21558174472422L153.68666563803018,45.49810049221279L153.98597816205287,132.0967185702018L154.78982646079518,112.8216924427993L154.86533917456353,121.38198950520854L156.46081403947156,49.90950728336334L157.6744551933532,150.67670653179044L157.77834849049916,119.28898570890091L159.50835824701136,55.61947018956385L160.956452126112,137.35969912059494L161.06974175721913,125.54559286567711L162.12815733712503,149.39076356345493L162.82789466870096,62.69985788816616L164.6654098529039,131.51964523577723L164.82922092925284,130.73553449541924L166.41801971259213,71.22253905652121L168.06001851042026,142.07200279677213L168.5667563695016,137.13927414184965L168.66758330026443,153.5263973645121L170.2773297867363,81.25938237197965L172.775184898961,142.3326109065436L173.38910432181657,152.9959871963802L174.404421299185,92.8822565118936L174.88377167336705,138.49652514940507L175.2613064851285,146.1433814641824L177.2920990332302,147.02778685250746L178.75135999729483,105.91924778755919L179.87469723717726,155.54177517251017L182.11890236425805,151.15293330239038L182.52494522038768,149.4835869882747L182.9724486527451,118.60894523876321L184.4731643208871,155.33900475341025L184.99911337948453,144.74824687278888L187.000684131419,130.59952161160172L187.25699848399262,154.6361815788408L189.8155638863485,152.00237123449807L190.83981033159404,141.90552981152945L191.26481994927966,156.64068782639563L192.70779098438285,157.40566300450777L194.49357115154712,152.54152274399908L195.14536802018424,149.57398507119348L195.35981905928818,156.5024226767809L197.09779165316178,153.60948606830155L197.96571048955573,162.5220533144652L198.47268345737675,159.38950890203998L201.2599722438967,171.8616744283806L202.80697438175812,156.74098319677913L204.33625769097833,154.2146833551341L204.38010031284756,180.5749389911998L204.55307949492294,160.51585059408623L205.29265756804466,153.05702515024174L206.028550261973,156.56884740872843L207.32983859468516,188.6763999083756L210.11293098768706,196.18061008536247L210.95038268897022,160.71281940329544L211.49559116994888,153.72771496044487L212.73312139013007,203.10212242761335L212.92818052503358,100.1094753782385L213.02311660098835,100.55926922975414L213.19101627784676,101.34319829011467L213.42813565733198,102.44670965386672L213.73073084116663,103.85525041555614L214.09505793107354,105.55426766972954L214.47018347979966,155.7605091542712L214.51737302877558,107.52920851093329L214.99393223599537,109.76552003371393L215.1941537002917,209.4554898405825L215.4111039956446,155.28065251555657L215.52099165445594,112.24864933261732L216.09480738588033,114.96404350219011L216.45883965389294,155.6208853914888L216.71163553199074,117.89714963697853L217.36773219451044,121.03341483152917L217.49977181644886,215.25526522972302L217.66599663146638,159.90854665231623L218.05935347516217,124.35828618038776L218.5404212602244,152.05833274968273L218.78275547566878,127.85721077810149L219.53419429775295,131.51563571921594L219.65371963687895,220.5160015004892L220.30992604313747,135.31900809827775L221.10620681354524,139.25277500983353L221.659741059859,225.25225155833408L221.91929271069915,143.302383548429L222.74543983632213,147.45328080861142L223.5215799836663,229.47856830871177L223.58090429213667,151.6909138849261L224.42194217986585,156.0007298719201L224.70132491436067,158.03116366379743L225.24298030657786,233.20950465707568L225.26480960123206,160.3681758641393L225.4353771319557,149.11628858829673L225.47082927556255,156.32815257276084L226.10576265795873,164.77869895613043L226.2234701885911,153.61711356948263L226.63016896000144,153.7411430672982L226.82768592687103,236.45961350887967L226.94105745176833,169.21774624243932L227.76695008438358,173.6707648176131L228.27944074282297,239.24344776957716L228.57969665752776,178.1232017761972L229.3755532729231,182.5605042127388L229.6019886527108,241.57556034462203L230.15077603229264,186.96811922178355L230.79907355481174,243.4705041394678L230.90162103735946,191.33149389787832L231.62434438984607,195.636075335569L231.87443934740313,244.94283205956822L232.05777112960075,155.008801760388L232.1450879552935,144.81133434173594L232.31520219147535,199.8673106294023L232.8318299287618,246.00709701037687L232.9704505439701,204.01064687392437L233.58634554905336,208.0515311636817L233.6749891971652,246.67785189734747L234.15914330844757,211.97541059322015L234.4076610508905,246.96964962593364L234.68509992387573,215.76773225708683L235.0335893882148,246.89704310158908L235.1604714970607,219.41394324982738L235.44195538037732,156.2828107274773L235.5565181074153,246.47458522976743L235.58151412972546,222.89949066598862L235.94448392359246,226.20982160011656L235.9801911067692,245.71682891592243L236.2456369803848,229.33038314675784L236.3083522845537,244.63832706550753L236.48122940182517,232.24662240045845L236.52201990525006,151.0122268783927L236.54474553904592,243.2536325839766L236.64751728963628,234.94398645576507L236.69311476852317,241.57729837678323L236.74075674554112,237.4079224072238L236.75720387126248,239.62387734938116L238.0358574533194,150.22864431302412L238.63418290038877,139.0532218754493L239.73673886913588,150.76959226473636L244.86729113739204,131.7517030548859L245.29460428266754,155.22791238532895L246.1138742145919,147.5167432670083L247.7396317249137,145.2416664994918L249.8763682191714,145.51294925550627L250.7618277529114,132.27910573194174L250.76830117947745,136.63356144968574L250.80904183645436,122.81652974549463L250.8296798259826,127.19827905784497L250.8502982731416,140.12583592032482L250.97065923123023,121.52689171814767L251.0090172013647,142.6201188531066L251.18356780119336,115.40075400360197L251.24565613160777,143.980599957279L251.4672073684112,108.95567620496021L251.56141323133164,144.07146894208972L251.82037976542264,102.3274686129746L251.9574866679972,142.75691551678662L252.241886824767,95.65194151839714L252.4350746090652,139.90112939061743L252.73053037898322,89.06490521198042L252.99537522199677,135.36830027282997L253.28511226061056,82.70216998447636L253.6395866742525,129.02261787267196L253.9044343021882,76.69954612663736L254.36890713329348,120.72827189939125L254.58729833625503,71.19284392921551L254.9988979550117,153.2467429519386L255.18453476658047,110.34945206223557L255.33250619535042,66.31787368296301L255.38521361297856,143.33729867538142L255.9317261232007,33.333333333333314L255.96161648120503,33.1198821775324L256.0471881993912,32.51885033016482L256.06785328888355,138.35315578730254L256.0847515573543,97.80086384249283L256.1388597120133,62.21044567863221L256.1822922440191,31.589220221283487L256.3607795813486,30.389974280941303L256.4240641677265,112.15745381272468L256.5765011776394,28.980094939191115L256.82330799915144,27.418564626085782L256.93660945258483,85.30728845225892L257.0051607187828,59.00637020697521L257.0950510121445,25.764365771678165L257.3855811828784,24.07648080602125L257.6719757632724,74.07764041193883L257.68874947761293,22.41389215916779L257.93021104819826,56.841457558744466L257.998406862608,20.83558226117065L258.29699952315735,64.05293729147978L258.3084043041234,19.40053354208281L258.6125927684191,18.167728431957098L258.81782976597975,55.174196660828834L258.90482322175467,17.196149360846302L258.91281253279857,55.851518024691856L259.17894663039016,16.544778758803446L259.24061552547965,47.38243608993312L259.4288139605852,16.272599055881287L259.5715058353974,40.618673148739724L259.64827617859976,16.43859268213278L259.8166497294731,34.82392540719586L259.8311842506937,17.101742067610747L259.951767005123,56.1723618955698L259.9713891431267,18.321029642368114L259.9821962414469,29.93921043524852L260.06274182215867,20.15543783645767L260.07429440505894,25.905545802845065L260.0990932540495,22.663949079932333L261.04587629771044,57.93979946213027L261.6769787574024,99.68533571219838L261.7140254313342,139.38787626753978L262.19394224310025,61.28964101512599L263.3947666738314,66.35769684530882L264.3155198253632,138.55649954574764L264.5249583699887,150.42258783292903L264.6471514224431,73.27977724343087L264.7228071529931,130.03219145081803L265.9498983214745,82.19169250024433L266.52488144261434,87.39130019425889L267.30180920346453,93.229252906502L268.70633627723896,106.04189765912788L270.1895243066778,117.44385158170199L270.9588561244153,77.06979758423142L271.7444192198168,126.92149322314084L272.88427457669735,133.25695232034357L273.3575311586806,134.5830682831401L273.5178520349947,131.77127321973535L273.7058969091915,120.20690481268633L273.84290750017715,146.8387324339232L274.99239266078075,68.61258218241926L275.01537026529394,140.5368224613955L276.7044466816815,144.8910014576029L278.41127054986794,147.753850971458L278.63898090968553,61.91140828912799L280.1223520118779,149.23361670265652L281.0709595919343,127.52126344140487L281.8242012097362,149.4385443508943L281.91211072910534,56.85803020466109L282.92286731815574,142.57846216054395L283.01852614942646,108.80542719555707L283.50332828546743,148.476879615867L284.8252719770154,53.34420222932324L285.1462433810963,146.4568681972704L285.2568709753396,122.58098798270368L286.7394566386475,143.4867557948003L287.39195451139113,51.26167866341815L288.26947820014584,139.67478810815243L288.85505659602563,121.43203935116806L289.62564819020764,50.50221380725042L289.7228182076159,135.1292108370225L291.08598680308233,129.95826968110632L291.5398428714403,50.9575619611244L291.73495979650295,137.72506241841415L292.3454941285699,124.27021034009961L292.6004235618199,95.92633696386864L293.1480284130645,52.5194774253441L293.48785032610334,118.1732785136982L294.4636946730555,55.07971450021378L294.49956553770716,111.77571990159775L295.3671499054062,105.18578020349405L295.5003315093887,58.53002748603776L296.0771135712251,98.5117051190828L296.21604731392443,115.07188649186884L296.2714287800391,62.7621706831204L296.6159666771887,91.86174034805991L296.79047634298234,67.66789839176587L296.9001051975561,111.73486842705542L296.97021936532144,85.34413159012095L297.0709640561936,73.13896491227824L297.1263817776483,79.06712454496177L300.24930690779746,132.36181861315657L301.5494662268358,84.0068476098329L303.1334134705824,108.52341130574365L308.4146179693091,99.15805215486499L308.4360306246183,126.57201615039419L309.5829640045162,73.79898410040066L309.5866367909525,101.86922023502815L315.5551989999867,95.19191972195901L316.2652529195437,120.43894043574991L316.72143516990843,65.220139993337L319.2332901336997,86.80520233912922L321.01858182263754,88.57411620877197L322.98539799806,58.18770884640464L323.70709576515253,114.04587687484643L325.9562669838576,82.09841613770304L328.3953707640188,52.6190842173685L328.94751019066166,76.19121441208307L330.34773620859903,75.8474259509886L330.73168113402346,107.4761108733067L332.97187174283255,48.43165966399167L334.1724712218142,69.90375209086437L336.73541920954847,45.54282874403866L337.309130998735,100.81292783675356L337.4099537484555,64.35000099956697L337.58715616761606,67.23280296810304L339.70653143921436,43.86998501527317L340.0396655134753,59.268779119332L341.9057267068778,43.33052203545898L342.04108824182623,54.74269289239577L343.35352328758665,43.84183336236013L343.3937036584604,50.854348760994306L343.4095673318661,94.13961317080984L344.0704394563883,45.3213125537405L344.07699348833034,47.686353167363805L345.18210609198456,59.846682601567316L349.0031121059951,87.53945228109845L351.7622379911885,53.949567906852494L354.05988729370097,81.09573057324236L357.35742989264907,49.458173478335596L358.5500148675622,74.8917334528642L361.9975598237877,46.28921391039399L362.4436168001573,69.010746325587L365.71081506406523,63.5360545970335L365.7125058120253,44.35940379740478L368.3217316318645,58.55094367282669L368.5321458847841,43.58545773374514L370.24648847613383,54.138698958589295L370.4863580694846,43.884090313792136L371.4552075694518,50.382605859944405L371.60502039354844,45.172016131923L371.91801088439706,47.36594978251472" stroke="#4c78a8" stroke-width="2"/></g></g><path class="foreground" aria-hidden="true" d="" display="none"/></g></g></g><path class="foreground" aria-hidden="true" d="" display="none"/></g></g></g></svg>